<svg xmlns="http://www.w3.org/2000/svg" viewBox="0 0 1200 180" width="100%" height="100%">
  <!-- Background Workspace Matched to AttenuX_Logo.jpg Structure -->
  <rect width="1200" height="180" fill="#0b101d" />

  <defs>
    <!-- Dark Tech Grid Pattern (Scaled for a tighter row context) -->
    <pattern id="techGrid" width="60" height="60" patternUnits="userSpaceOnUse">
      <path d="M 60 0 L 0 0 0 60" fill="none" stroke="#141c2e" stroke-width="1" />
    </pattern>

    <!-- Translucent Layer Blends -->
    <linearGradient id="eLayer1" x1="0%" y1="0%" x2="100%" y2="100%"><stop offset="0%" stop-color="#00f3ff" stop-opacity="0.2" /><stop offset="100%" stop-color="#00f3ff" stop-opacity="0.02" /></linearGradient>
    <linearGradient id="eLayer2" x1="0%" y1="0%" x2="100%" y2="100%"><stop offset="0%" stop-color="#2af598" stop-opacity="0.25" /><stop offset="100%" stop-color="#2af598" stop-opacity="0.02" /></linearGradient>
    <linearGradient id="eLayer3" x1="0%" y1="0%" x2="100%" y2="100%"><stop offset="0%" stop-color="#ff0055" stop-opacity="0.15" /><stop offset="100%" stop-color="#ff0055" stop-opacity="0.01" /></linearGradient>

    <!-- Neon Glow Filter -->
    <filter id="glowEffect" x="-20%" y="-20%" width="140%" height="140%">
      <feGaussianBlur stdDeviation="3" result="blur" />
      <feComposite in="SourceGraphic" in2="blur" operator="over" />
    </filter>
  </defs>

  <!-- Fill Background Tech Grid Matrix -->
  <rect width="1200" height="180" fill="url(#techGrid)" />

  <!-- Corner Tech Frame Brackets (Tighter spacing profile) -->
  <path d="M 25,20 L 12,20 L 12,35" fill="none" stroke="#2e3a4e" stroke-width="1.5" />
  <path d="M 1175,160 L 1188,160 L 1188,145" fill="none" stroke="#2e3a4e" stroke-width="1.5" />

  <!-- ================= MICROSTRUCTURAL HETEROJUNCTION STACK ================= -->
  <g transform="translate(45, -25) scale(0.65)">
    <!-- Layer 1: Dashed Front Entry Window -->
    <polygon points="170,110 240,60 240,320 170,370" fill="url(#eLayer1)" stroke="#00f3ff" stroke-width="2" stroke-dasharray="6 3" />
    
    <!-- Layer 2: Intermediate Scattering Boundary -->
    <polygon points="255,100 295,70 295,310 255,340" fill="url(#eLayer2)" stroke="#2af598" stroke-width="2.5" />
    
    <!-- Layer 3: Thick Sinking Absorber Substrate -->
    <polygon points="310,90 410,20 410,260 310,330" fill="url(#eLayer3)" stroke="#ff0055" stroke-width="2" />

    <!-- Incident Monoenergetic Beam Source -->
    <path d="M -20,210 L 205,210" stroke="#ffffff" stroke-width="3" stroke-linecap="round" />
    <circle cx="205" cy="210" r="5" fill="#ffffff" filter="url(#glowEffect)" />

    <!-- Trajectory Track Alpha (Scatters & Absorbs) -->
    <path d="M 205,210 L 225,185 L 245,215 L 275,190 L 290,235 L 325,210 L 340,240 L 335,265" 
          fill="none" stroke="#2af598" stroke-width="3.5" stroke-linecap="round" stroke-linejoin="round" filter="url(#glowEffect)" />
    <circle cx="335" cy="265" r="4" fill="#ff0055" />

    <!-- Trajectory Track Beta (Sharp Atomic Deflection / Backscatter Path) -->
    <path d="M 205,210 L 215,230 L 240,250 L 265,220 L 260,160 L 235,140 L 180,155 L 140,140" 
          fill="none" stroke="#00f3ff" stroke-width="2.5" stroke-linecap="round" stroke-linejoin="round" opacity="0.8" />
  </g>

  <!-- ================= TYPOGRAPHY PARADIGM ================= -->
  <!-- Primary Brand Name (Shifted left and up vertically) -->
  <text x="390" y="105" font-family="-apple-system, BlinkMacSystemFont, 'Segoe UI', Roboto, sans-serif" font-weight="800" font-size="76" fill="#ffffff" letter-spacing="-1">
    Attenu<tspan fill="#2af598">E</tspan>
  </text>

  <!-- Subtitle System -->
  <text x="395" y="134" font-family="-apple-system, BlinkMacSystemFont, 'Segoe UI', Roboto, sans-serif" font-weight="600" font-size="14" fill="#475569" letter-spacing="6.5">
    MONTE CARLO ELECTRON SIMULATOR
  </text>
</svg>
